<svg version="1.1" xmlns="http://www.w3.org/2000/svg" viewBox="0 0 451 584">
  <rect x="0" y="0" width="451." height="400" fill="#ffffff"></rect><g><g transform="translate(328 153) rotate(0 15 2)"><path d="M-1 2 C3 2, 21 0, 26 0 M3 1 C8 1, 27 3, 31 3" stroke="#000000" stroke-width="4" fill="none"></path></g></g><g transform="translate(133 10) rotate(0 153 154)"><path d="M0 0 L306 1 L304 306 L3 304" stroke="none" stroke-width="0" fill="#656aa8"></path><path d="M0 -1 C120 -0, 240 0, 307 -1 M-0 1 C116 3, 235 4, 308 0 M305 -0 C307 89, 305 186, 307 308 M308 -0 C312 64, 310 128, 308 308 M309 307 C218 306, 126 305, -1 306 M308 307 C239 310, 172 310, -0 308 M-1 308 C-4 246, -3 179, -0 -2 M0 308 C2 223, 4 139, -0 -0" stroke="#000000" stroke-width="4" fill="none"></path></g><g transform="translate(2 172) rotate(15 221 204)"><path d="M224 1 L446 201 L223 411 L3 207" stroke="none" stroke-width="0" fill="#c43c1e" fill-rule="evenodd"></path><path d="M219 -1 C306 83, 393 164, 443 203 M220 0 C278 53, 338 105, 444 203 M440 206 C387 251, 333 304, 222 406 M442 206 C383 260, 326 312, 223 407 M219 409 C148 341, 70 279, 2 203 M222 408 C146 343, 73 273, -0 204 M2 202 C85 122, 172 41, 222 -2 M0 204 C54 156, 107 106, 221 -1" stroke="#000000" stroke-width="4" fill="none"></path></g><g transform="translate(173 66) rotate(18 108 123)"><path d="M134 4 C146 5, 157 11, 168 20 C179 28, 191 42, 198 54 C205 67, 208 82, 211 96 C214 111, 217 126, 216 141 C214 155, 210 169, 203 182 C196 194, 186 206, 176 216 C166 225, 154 232, 142 238 C130 243, 119 247, 106 247 C94 247, 79 243, 67 237 C54 231, 43 222, 33 212 C23 202, 14 189, 8 176 C3 162, 1 146, 0 131 C-0 116, -0 99, 3 86 C6 72, 13 59, 21 48 C29 36, 40 24, 52 17 C63 10, 77 5, 90 3 C103 0, 115 -1, 129 2 C143 6, 162 16, 175 27 C187 38, 202 67, 201 69 M61 12 C72 5, 89 3, 102 1 C115 0, 126 2, 138 5 C149 9, 160 13, 171 23 C181 32, 194 47, 201 60 C208 73, 210 87, 212 101 C213 116, 213 133, 211 147 C209 162, 207 175, 200 187 C194 199, 183 210, 173 220 C163 229, 153 238, 141 243 C128 247, 112 248, 98 247 C85 245, 71 241, 59 234 C48 227, 38 216, 29 205 C21 195, 14 183, 9 170 C4 157, -1 142, -1 127 C-2 112, 0 95, 5 81 C10 67, 20 53, 28 43 C36 32, 47 21, 53 15 C59 10, 61 9, 63 9 C65 9, 64 11, 64 13" stroke="none" stroke-width="0" fill="#d9723f"></path><path d="M20 54 C26 41, 36 30, 46 21 C57 12, 69 5, 82 1 C94 -1, 109 -2, 122 -0 C134 1, 145 6, 157 13 C168 21, 182 32, 191 43 C200 55, 206 68, 210 82 C214 96, 216 112, 216 126 C215 140, 213 153, 208 167 C203 181, 194 197, 185 208 C176 219, 166 227, 155 233 C143 239, 130 243, 117 245 C105 246, 91 245, 79 241 C67 238, 55 232, 45 223 C34 213, 24 199, 17 187 C10 174, 4 159, 1 145 C-1 131, -2 116, -0 102 C2 87, 10 66, 14 58 C18 49, 20 51, 22 49 C23 47, 24 47, 25 48 M90 0 C102 -2, 117 1, 130 4 C142 7, 154 9, 165 16 C176 24, 187 36, 195 48 C203 60, 209 74, 213 88 C217 102, 218 118, 217 132 C216 146, 214 159, 208 172 C202 185, 194 201, 184 211 C174 221, 159 229, 147 235 C135 240, 124 245, 111 245 C99 245, 85 241, 73 237 C61 232, 51 227, 41 218 C31 210, 19 198, 13 184 C6 171, 3 153, 1 139 C0 124, 2 112, 4 97 C6 83, 9 65, 16 52 C23 39, 34 29, 44 21 C54 13, 70 9, 78 6 C86 2, 88 1, 90 1 C92 0, 88 1, 88 3" stroke="#000000" stroke-width="4" fill="none"></path></g><g><g transform="translate(216 93) rotate(0 109 21)" fill-rule="evenodd"><path d="M0 0 L219 65 L204 61 L184 54 L175 51 L169 47 L163 40 L157 21 L152 12 L134 -6 L123 -14 L109 -20 L100 -22 L90 -22 L67 -22 L25 -19 L31 -20 L32 -19 L0 0" stroke="none" stroke-width="0" fill="#6b6938" fill-rule="evenodd"></path><path d="M0 0 C35 10, 183 55, 211 63 C239 71, 179 56, 169 47 C159 39, 162 23, 152 12 C142 0, 130 -15, 109 -20 C89 -26, 43 -20, 30 -19 C17 -19, 36 -21, 31 -18 C26 -15, 5 -3, 0 0 M0 0 C35 10, 183 55, 211 63 C239 71, 179 56, 169 47 C159 39, 162 23, 152 12 C142 0, 130 -15, 109 -20 C89 -26, 43 -20, 30 -19 C17 -19, 36 -21, 31 -18 C26 -15, 5 -3, 0 0" stroke="#000000" stroke-width="4" fill="none"></path></g></g><g><g transform="translate(261 263) rotate(0 -16 -44)" fill-rule="evenodd"><path d="M0 -0 L-42 -14 L-50 -18 L-60 -24 L-51 -42 L-23 -80 L-13 -83 L1 -90 L22 -85 L23 -73 L8 -2 L6 8 L-3 -3" stroke="none" stroke-width="0" fill="#4c1f14" fill-rule="evenodd"></path><path d="M0 0 C-1 0, -6 -0, -14 -3 C-23 -5, -45 -11, -51 -17 C-58 -22, -57 -24, -53 -34 C-49 -44, -34 -66, -26 -75 C-18 -85, -13 -86, -6 -89 C-0 -91, 5 -91, 10 -89 C15 -88, 23 -94, 23 -79 C23 -64, 13 -12, 10 0 C6 13, 3 1, 1 0 M-2 -1 C-5 -3, -8 -5, -17 -7 C-25 -9, -47 -9, -52 -13 C-58 -17, -55 -21, -51 -31 C-47 -41, -37 -64, -29 -73 C-22 -83, -11 -87, -4 -90 C2 -93, 7 -96, 11 -93 C15 -90, 21 -88, 21 -73 C20 -57, 10 -14, 6 -2 C2 9, -3 -0, -3 -0" stroke="#000000" stroke-width="4" fill="none"></path></g></g><g><g transform="translate(323 41) rotate(0 -3 11)"><path d="M2 0 C1 4, -5 18, -6 22 M0 -2 C-0 2, -7 19, -9 24" stroke="#000000" stroke-width="4" fill="none"></path></g></g><g><g transform="translate(217 127) rotate(0 14 5)"><path d="M-2 -2 C2 -0, 25 11, 30 13 M1 2 C6 3, 25 7, 29 9" stroke="#000000" stroke-width="4" fill="none"></path></g></g><g><g transform="translate(218 123) rotate(0 13 5)"><path d="M-0 -2 C3 -0, 22 8, 26 9 C30 10, 23 5, 23 5 M4 2 C8 4, 21 12, 24 13 C27 13, 21 7, 21 7" stroke="#000000" stroke-width="4" fill="none"></path></g></g><g><g transform="translate(313 158) rotate(0 14 2)"><path d="M-1 0 C3 1, 24 6, 29 7 M2 -2 C6 -1, 22 1, 27 3" stroke="#000000" stroke-width="4" fill="none"></path></g></g><g><g transform="translate(345 157) rotate(20 -21 2)"><path d="M-11 -0 C-16 -0, -29 -2, -32 -1 C-35 -0, -31 3, -31 4 M-8 -2 C-12 -2, -29 0, -33 1 C-37 3, -33 7, -32 7" stroke="#000000" stroke-width="4" fill="none"></path></g></g></svg>
