<svg xmlns="http://www.w3.org/2000/svg" fill="currentColor" viewBox="0 0 23.69 23.67">
  <g>
          <g>
            <g>
              <path d="M10.83.42.42 10.83c-.56.56-.56 1.46 0 2.02l10.41 10.4c.56.56 1.46.56 2.02 0l4.37-4.36c.5-.5.5-1.31 0-1.81s-1.31-.5-1.82 0l-3.31 3.31c-.14.14-.35.14-.49 0l-8.31-8.32a.338.338 0 0 1 0-.49l8.32-8.3c.14-.14.35-.14.49 0l3.31 3.31c.5.5 1.31.5 1.82 0 .5-.5.5-1.31 0-1.81L12.86.41c-.56-.55-1.47-.54-2.02.01Z"/>
              <path d="M10.83.42.42 10.83c-.56.56-.56 1.46 0 2.02l10.41 10.4c.56.56 1.46.56 2.02 0l4.37-4.36c.5-.5.5-1.31 0-1.81s-1.31-.5-1.82 0l-3.31 3.31c-.14.14-.35.14-.49 0l-8.31-8.32a.338.338 0 0 1 0-.49l8.32-8.3c.35-.3.91-.9 1.74-1.05.62-.11 1.29.13 2.03.7L12.86.41c-.56-.55-1.47-.54-2.02.01Z"/>
            </g>
            <path d="M18.23 16.11c.5.5 1.31.5 1.82 0l3.22-3.22c.56-.56.56-1.46 0-2.02l-3.25-3.23c-.5-.5-1.32-.5-1.82 0s-.5 1.31 0 1.81l2.19 2.19c.14.14.14.35 0 .49l-2.16 2.16c-.5.5-.5 1.31 0 1.81Z"/>
          </g>
          <circle cx="11.9" cy="11.89" r="2.81"/>
  </g>
</svg>
