<svg xmlns="http://www.w3.org/2000/svg" fill="currentColor" data-name="Layer 1" viewBox="0 0 23.82 23.6"><path d="M22.26 17.88c.35-.2.47-.64.27-.98a.75.75 0 0 0-1.01-.26l-9.63 5.43-9.59-5.41c-.35-.2-.8-.08-1.01.26-.2.34-.08.79.27.98l9.94 5.6c.17.1.38.12.57.07.09-.01.18-.04.26-.09l9.94-5.6Z"/><path d="M23.26 12.31a.759.759 0 0 0-.39-.74l-10.5-5.89a.618.618 0 0 0-.27-.09.815.815 0 0 0-.61.07L.99 11.55c-.3.17-.44.49-.38.81 0 .24.11.47.38.63l10.5 5.92c.18.1.4.13.61.07a.86.86 0 0 0 .27-.09l10.5-5.92c.28-.16.39-.41.38-.65Zm-2.27-.04-9.08-5.09-9.07 5.09 9.08 5.12 9.07-5.11Z"/><path d="M23.41 7.9c.39-.22.53-.71.3-1.09a.835.835 0 0 0-1.12-.29l-10.7 6.03L1.24 6.53a.835.835 0 0 0-1.12.29c-.23.38-.09.87.3 1.09l11.03 6.22c.19.11.42.14.64.08.1-.01.2-.05.28-.1L23.4 7.89Z"/><path d="m2.05 7.2 9.83-5.99 9.83 6-9.83 5.6L2.05 7.2Z"/><path d="M23.4 6.32c.39.22.53.71.3 1.09-.23.38-.73.51-1.12.29l-10.69-6L1.23 7.68c-.39.22-.89.09-1.12-.29a.794.794 0 0 1 .3-1.09L11.45.11c.19-.11.42-.14.64-.08.1.02.19.05.28.1L23.4 6.32Z"/></svg>
