<svg xmlns="http://www.w3.org/2000/svg" width="24" height="24" viewBox="0 0 24 24" fill="none"><path fill="currentColor" fill-rule="evenodd" d="M21.524 17.358c.29-.163.389-.526.222-.81-.167-.283-.538-.38-.828-.217l-7.929 4.47-7.904-4.453c-.29-.163-.661-.067-.828.217-.167.283-.068.646.222.81l8.176 4.612a.618.618 0 0 0 .472.056.62.62 0 0 0 .21-.073l8.187-4.612Z" clip-rule="evenodd"/><path fill="currentColor" fill-rule="evenodd" d="M22.119 11.733c.042-.251-.076-.511-.315-.646l-8.652-4.852a.654.654 0 0 0-.22-.076.654.654 0 0 0-.499.059L3.814 10.97c-.251.141-.369.423-.306.686-.027.216.057.441.31.583l8.652 4.874a.654.654 0 0 0 .499.06.649.649 0 0 0 .222-.077l8.652-4.874c.254-.143.338-.372.308-.589h-.005l-.027.1Zm-1.785-.027-7.55-4.238-7.549 4.236 7.55 4.26 7.549-4.258Z" clip-rule="evenodd"/><path fill="currentColor" fill-rule="evenodd" d="M22.251 8.124c.323-.182.434-.584.247-.9-.186-.315-.598-.423-.92-.241L12.224 12.2 2.85 7.015c-.323-.182-.735-.073-.92.241-.186.315-.073.718.25.9l9.083 5.122a.687.687 0 0 0 .524.062.682.682 0 0 0 .234-.08l9.2-5.136h.03Z" clip-rule="evenodd"/><path fill="currentColor" d="m3.686 7.938 8.09-4.938 8.09 4.938-8.09 4.61-8.09-4.61Z"/><path fill="currentColor" fill-rule="evenodd" d="M22.234 6.981c.323.181.435.584.25.9-.186.315-.598.423-.92.242L12.211 3.016 2.861 8.103c-.323.181-.736.072-.921-.242-.186-.316-.073-.718.25-.898L11.48 1.86a.688.688 0 0 1 .524-.062.687.687 0 0 1 .23.08l9.082 5.095-.081.008Z" clip-rule="evenodd"/></svg>
