<?xml version="1.0" encoding="UTF-8"?>
<svg xmlns="http://www.w3.org/2000/svg" viewBox="0 0 19.17 23.9" fill="currentColor">
  <path d="M15.9,23.39v-6.18h-6.1l6.1,6.18"/>
  <path d="M16.58,19.89v-6.68h-6.6l6.6,6.68"/>
  <path d="M12.57,17.21v6.68h6.6l-6.6-6.68"/>
  <path d="M15.2,13.66v-5.28h-5.22l5.22,5.28"/>
  <path d="M17.68,12.4v-6.68h-6.6l6.6,6.68"/>
  <path d="M6.43,0v6.68h6.6L6.43,0"/>
  <path d="M7.98,10.46V3.78H0l6.57,6.68h1.41"/>
  <path d="M7.98,23.86v-8.08H0l7.98,8.08"/>
  <path d="M7.98,17.17v-6.68H1.38l6.6,6.68"/>
  <path d="M9.98,8.37v6.68h6.6l-6.6-6.68"/>
  <path d="M7.96,9.12V2.44H1.37l6.6,6.68"/>
  <path d="M9.8,17.21v6.68h6.6l-6.6-6.68"/>
  <polygon points="14.07 17.22 11.93 15.05 10.11 15.05 10.11 8.37 13.83 8.37 12.16 6.68 8.09 6.68 8.11 10.46 8.11 15.78 8.11 23.9 9.92 23.9 9.92 17.22 14.07 17.22"/>
</svg>
