<svg xmlns="http://www.w3.org/2000/svg"
     viewBox="0 0 24 24"
     fill="currentColor"
     preserveAspectRatio="xMidYMid meet">
  <g transform="translate(2.4, 2.4) scale(0.8)">
    <polyline points=".27 -.11 8.34 7.97 10.09 7.97 10.09 -.11 .27 -.11"/>
    <polygon points="1.83 7.84 10.09 7.84 10.09 14.38 8.33 14.38 1.83 7.84"/>
    <polygon points=".27 14.38 10.09 14.38 10.09 24.11 .27 14.38"/>
    <polygon points="9.89 3.49 16.29 3.49 12.84 -.11 9.75 -.11 9.89 3.49"/>
    <polygon points="13.26 2.27 22 2.27 22 10.58 13.26 2.27"/>
    <rect x="12.28" y="5.54" width="6.68" height="7.93"/>
    <polyline points="18.39 11.11 20.54 11.11 20.54 19.47 13.51 12.44 18.09 12.44 18.09 11.11"/>
    <polygon points="17.63 16.15 15.4 16.15 12.28 16.15 12.28 24.11 23.73 24.11 19.6 20.13 19.6 17.39 17.63 16.15"/>
  </g>
</svg>
