<?xml version="1.0" encoding="UTF-8"?>
<svg xmlns="http://www.w3.org/2000/svg" viewBox="0 0 24 24" fill="currentColor">
  <path d="M20.78,20.35h-4.82c-.23,0-.46-.08-.69-.08-.24-.09-.49-.15-.7-.3-.27-.16-.43-.45-.61-.7-.08-.15-.16-.31-.23-.46-.05-.13-.1-.26-.16-.38,0-.04-.02-.08-.03-.12-.14-.37-.27-.74-.42-1.11-.08-.24-.15-.48-.26-.71l-.03-.12c-.08-.19-.14-.4-.22-.59-.06-.17-.12-.35-.19-.52-.08-.24-.16-.48-.26-.71-.08-.24-.16-.48-.26-.71-.06-.18-.12-.35-.2-.52l-.03-.12c-.07-.2-.13-.4-.22-.59-.06-.17-.12-.35-.2-.52-.09-.28-.19-.56-.31-.83-.02.08-.03.16-.04.25-.05.11-.1.21-.14.32-.04.11-.09.21-.13.32-.04.11-.09.21-.13.32-.04.11-.09.21-.13.32-.04.11-.09.21-.13.32-.04.11-.09.21-.13.32-.12.25-.22.51-.32.77-.05.11-.09.21-.13.32-.05.11-.09.21-.13.32-.05.11-.09.21-.13.32-.05.1-.09.21-.13.32-.05.1-.09.21-.13.32-.05.11-.09.21-.13.32-.05.13-.11.25-.15.38-.04.09-.08.17-.13.26-.2.33-.43.65-.77.86-.03.02-.1.05-.13.07-.25.07-.5.18-.77.14-.11-.02-.22-.05-.33-.07-.19-.11-.38-.24-.53-.4-.05-.09-.1-.19-.15-.28-.06-.44.03-.87.21-1.27.05-.1.09-.21.13-.32.05-.11.09-.21.13-.32.05-.11.09-.21.13-.32.05-.11.09-.21.13-.32.04-.1.09-.21.13-.32.05-.11.09-.21.13-.32.04-.11.09-.21.13-.32.05-.1.09-.21.13-.32.04-.1.09-.21.13-.32.16-.36.31-.73.45-1.1.04-.1.09-.21.13-.32.05-.11.09-.21.13-.32.04-.1.09-.21.13-.32.05-.11.09-.21.13-.32.04-.1.09-.21.13-.32.05-.1.09-.21.13-.32.04-.1.09-.21.13-.32.04-.1.09-.21.13-.32.19-.44.35-.9.47-1.36.09-.34.14-.71.01-1.05-.2-.35-.54-.61-.93-.7-.41-.06-.84-.03-1.23.14-.09.04-.17.08-.26.13-.67.42-1.24,1.07-1.4,1.85-.06.19-.04.38-.07.57.02.26.03.52.16.75.18.31.45.55.78.7.13.06.27.12.41.16.2.1.38.24.53.4.02.04.05.1.06.14.03.07.05.13.08.2.09.61-.32,1.19-.87,1.42-.49.14-1.04.12-1.54,0-.11-.05-.21-.1-.32-.13-.11-.07-.22-.13-.33-.19-.51-.34-.87-.84-1.18-1.36-.06-.16-.12-.31-.19-.46-.17-.6-.25-1.21-.2-1.83.09-.48.15-.98.33-1.43.07-.15.13-.3.19-.46.09-.15.18-.3.27-.45.09-.13.17-.26.26-.39.43-.54.92-1.03,1.49-1.43.07-.05.13-.09.2-.13.25-.14.51-.26.77-.39.13-.04.26-.08.39-.13.74-.26,1.54-.24,2.31-.2.13.02.25.06.38.07.43.13.84.29,1.23.52.49.35.92.79,1.22,1.31.07.19.15.38.22.58.1.44.09.9.08,1.35-.04.5-.19.99-.34,1.47-.07.17-.14.34-.19.52-.1.2-.17.42-.28.61.2-.26.45-.48.67-.72.36-.43.78-.81,1.16-1.22.45-.54.99-.99,1.43-1.54.8-.79,1.53-1.66,2.36-2.42.13-.08.26-.17.4-.26.33-.19.71-.18,1.08-.15.29.14.57.35.69.66.11.24.06.51.06.77-.1.17-.18.35-.28.53-.04.07-.09.13-.13.2-.27.27-.49.58-.77.84-.31.33-.65.64-.94,1-.43.47-.91.9-1.32,1.39-.33.34-.66.67-.99,1.01-.34.42-.75.78-1.12,1.18.04.09.08.17.12.26.08.24.15.48.25.71.08.24.15.48.26.71.08.24.15.48.26.71.08.24.15.48.26.71.08.24.15.48.26.71.08.24.16.48.26.71.06.18.12.35.2.52,0,.03.02.09.03.12.08.19.14.39.22.58.04.09.08.17.12.26.21.32.6.47.97.48h5.68l-1.83,2.51Z"/>
</svg>
