<?xml version="1.0" encoding="UTF-8"?>
<svg xmlns="http://www.w3.org/2000/svg" viewBox="0 0 24 24" fill="currentColor">
  <g transform="translate(4.64, 0)">
    <path d="M14.22,9.6c0-.33-.28-.67-.67-.67H1.17c-.33,0-.67.28-.67.67,0,2.24.33,9.94,3.63,13.7.13.13.28.21.46.21h5.51c.18,0,.33-.08.46-.21,3.3-3.68,3.63-11.38,3.66-13.7h0ZM9.36,21.6h-3.89c-.18,0-.33-.08-.46-.21-2.24-2.6-2.5-7.9-2.57-9.76,0-.33.28-.67.67-.67h8.68c.33,0,.67.28.67.67,0,1.85-.33,7.05-2.57,9.76-.21.13-.33.21-.51.21ZM8.61,7.62s2.37-1.39.93-3.89c-.85-1.31-1.26-2.45-.93-2.91-.85,1.06-2.32,2.16-.72,4.53.54.62.8,1.88.72,2.27h0ZM6.01,7.82s1.57-.93.59-2.6c-.59-.85-.85-1.65-.59-1.91-.59.72-1.52,1.44-.46,3.09.33.31.46,1.16.46,1.42h0Z"/>
    <path d="M12.71,14.44c-.3,1.89-2.06,4.95-3.24,6.37-.14.14-.3.22-.41.22h-3.51c-.14,0-.36-.08-.41-.22-.85-1.04-1.4-2.47-1.75-3.92,0,0,4.06.55,6.39-.3,1.64-.66,2.4-1.76,2.4-1.76l.54-.39Z"/>
    <path d="M5.51,3.32l.48-.6c.2.64.29.97.29.97,0,0-.06-.16-.16-.47"/>
    <path d="M5.83,4.01c.64,0,.64-1,0-1s-.64,1,0,1h0Z"/>
    <path d="M7.59,1.51c.18-.33.46-.73.9-1.09.1-.08.2-.15.3-.21.09.61.17,1.23.26,1.84-.49-.18-.97-.36-1.46-.54Z"/>
  </g>
</svg>
