<svg xmlns="http://www.w3.org/2000/svg" viewBox="0 0 24 24" fill="currentColor">
  <g transform="translate(3.945,0)">
    <path d="M15.75,13.3v-.8c0-.47-.38-.85-.85-.85H1.21c-.47,0-.85.38-.85.85v.8h15.39ZM15.75,22.83v-9.17H.36v9.17c0,.47.38.85.85.85h13.68c.47,0,.85-.38.85-.85ZM1.29,11.29l.05-.58-.23.59s.06,0,.09,0h.08ZM14.72,10.31l.08.98h.1c.05,0,.1,0,.15.01l-.32-.99ZM15.81,11.71c.19.21.3.49.3.8v10.33c0,.67-.54,1.21-1.21,1.21H1.21c-.67,0-1.21-.54-1.21-1.21v-10.33c0-.32.13-.62.34-.84l1.21-3.13.53-5.76.6.05-.48,5.19.17.06-.23.59-.24,2.62h12.31l-.68-8.48.6-.05.4,5h0s1.29,3.94,1.29,3.94ZM1.33,12.23c.15,0,.27.12.27.27s-.12.27-.27.27-.27-.12-.27-.27.12-.27.27-.27ZM2.26,12.23c.15,0,.27.12.27.27s-.12.27-.27.27-.27-.12-.27-.27.12-.27.27-.27ZM3.15,12.23c.15,0,.27.12.27.27s-.12.27-.27.27-.27-.12-.27-.27.12-.27.27-.27Z"/>
    <polygon points="13.28 8.35 15.22 7.41 15.22 6.48 10.75 4.34 15.22 2.04 15.22 1.14 13.35 .28 8.06 2.91 2.68 .28 .94 1.21 .94 2.01 5.15 4.31 .94 6.45 .94 7.41 2.74 8.35 8.08 5.61 13.28 8.35"/>
    <path d="M13.53,7.97v-.4l1.46-.75v.45l-1.46.7ZM1.06,6.8l1.41.81v.32l-1.41-.71v-.42ZM8.27,5.1l4.84,2.39v.48l-4.84-2.48v-.39ZM2.89,7.56l4.96-2.46v.39l-4.96,2.51v-.44ZM6.4,3.54L1.38,1.11l1.3-.66,5.38,2.79L13.35.45l1.35.69-4.9,2.47c-.2.1-.2.38,0,.48l4.85,2.43-1.26.65-5.33-2.73-5.42,2.79-1.24-.71,5.01-2.49c.2-.1.2-.38,0-.48h0ZM1.12,1.94v-.44l4.68,2.34-.47.19L1.12,1.94ZM10.73,4.05s-.45-.21-.45-.21l4.7-2.37v.44l-4.25,2.14ZM11.2,4.28l4.13-2.08s.07-.06.07-.11v-.98s-.03-.09-.07-.11L13.41.01s-.08-.02-.11,0l-5.18,2.63s-.08.02-.11,0L2.73.01s-.08-.02-.11,0L.71.98s-.07.06-.07.11v1s.03.09.07.11l4.15,2.05L.73,6.31s-.07.06-.07.11l-.02.98s.03.09.07.11l1.98,1s.08.02.11,0l5.2-2.61s.08-.02.11,0l5.13,2.61s.08.02.11,0l1.98-.96s.07-.06.07-.11v-1.03s-.03-.09-.07-.11l-4.13-2.03Z"/>
  </g>
</svg>
