<svg xmlns="http://www.w3.org/2000/svg" width="24" height="24" fill="none" stroke="currentColor" stroke-linecap="round" stroke-linejoin="round" stroke-width="2" class="icon icon-tabler icons-tabler-outline icon-tabler-server-cog"><path stroke="none" d="M0 0h24v24H0z"/><path d="M3 7a3 3 0 0 1 3-3h12a3 3 0 0 1 3 3v2a3 3 0 0 1-3 3H6a3 3 0 0 1-3-3zM12 20H6a3 3 0 0 1-3-3v-2a3 3 0 0 1 3-3h10.5M16 18a2 2 0 1 0 4 0 2 2 0 1 0-4 0M18 14.5V16M18 20v1.5M21.032 16.25l-1.299.75M16.27 19l-1.3.75M14.97 16.25l1.3.75M19.733 19l1.3.75M7 8v.01M7 16v.01"/></svg>
