<svg xmlns="http://www.w3.org/2000/svg" class="prefix__icon prefix__icon-tabler prefix__icon-tabler-ship" width="44" height="44" viewBox="0 0 24 24" stroke-width="1.5" stroke="#2c3e50" fill="none" stroke-linecap="round" stroke-linejoin="round"><path d="M0 0h24v24H0z" stroke="none"/><path d="M2 20a2.4 2.4 0 002 1 2.4 2.4 0 002-1 2.4 2.4 0 012-1 2.4 2.4 0 012 1 2.4 2.4 0 002 1 2.4 2.4 0 002-1 2.4 2.4 0 012-1 2.4 2.4 0 012 1 2.4 2.4 0 002 1 2.4 2.4 0 002-1M4 18l-1-5h18l-2 4M5 13V7h8l4 6M7 7V3H6"/></svg>