<?xml version="1.0" encoding="UTF-8"?>
<svg xmlns="http://www.w3.org/2000/svg" viewBox="0 0 23.5 21.75" fill="currentColor">
  <path d="M7.19,14.34L1.93,9.01c-.45-.45-1.17-.44-1.61.02-.43.45-.43,1.17,0,1.61l10.62,10.77c.21.22.5.34.8.34h0c.3,0,.59-.12.8-.34l10.62-10.77c.21-.22.33-.51.33-.81,0-.64-.51-1.15-1.14-1.15-.3,0-.58.12-.79.33l-5.25,5.33s-.04.04-.06.06l-4.5,4.57-4.5-4.57s-.04-.04-.06-.06h0ZM17.64,6.59l-5.62,8.24c-.15.22-.45.28-.67.12-.05-.03-.09-.08-.12-.13-.06-.09-.09-.19-.08-.3l.22-4.55-3.63-.78c-.16-.03-.29-.14-.35-.3-.06-.15-.04-.32.05-.46L13.06.21c.12-.18.35-.26.55-.19.1.03.19.1.24.19.06.09.09.19.08.3l-.22,4.55,3.63.78c.08.02.15.05.21.1.19.16.23.44.09.65h0Z"/>
</svg>
