<svg xmlns="http://www.w3.org/2000/svg" fill="currentColor" viewBox="0 0 24 24">
  <g transform="translate(1.195, 0.015)">
    <path d="m20.95 18.47-9.71 5.5v-4.28l6.05-3.33 3.66 2.11Zm.66-.6V6.38l-3.55 2.05v7.39l3.55 2.05Zm-20.94.6 9.71 5.5v-4.28l-6.06-3.33-3.66 2.11Zm-.67-.6V6.38l3.55 2.05v7.39L0 17.87ZM.42 5.64 10.38 0v4.14L4 7.65l-.05.03L.42 5.64Zm20.77 0L11.23 0v4.14l6.38 3.51.05.03 3.53-2.04ZM10.38 18.71l-5.97-3.29v-6.5l5.97 3.45v6.34Zm.85 0 5.97-3.28V8.92l-5.97 3.45v6.34ZM4.81 8.17l5.99-3.3 5.99 3.3-5.99 3.46-5.99-3.46Z"/>
  </g>
</svg>
