<svg xmlns="http://www.w3.org/2000/svg" viewBox="0 0 153 228" version="1.1"><path fill="#49a4a2" d="M111.71 218.57c-.804-1.502-1.461-3.639-1.461-4.75 0-2.873-7.309-24.818-11.24-33.747-1.822-4.14-4.127-10.47-5.12-14.065-.995-3.595-2.34-6.865-2.99-7.266-.65-.402-1.18-1.651-1.18-2.778s-1.153-4.63-2.561-7.789-2.867-6.666-3.243-7.795c-.767-2.312-1.839-.074-5.9 12.319-2.59 7.909-7.929 19.567-12.353 26.979-2.828 4.739-14.217 11.346-19.556 11.346-5.128 0-11.986-3.935-13.833-7.936-3.032-6.57-5.486-15.893-5.5-20.906-.034-11.006 9.18-28.966 18.74-36.533 11.351-8.983 21.732-10.802 28.465-4.988l4.106 3.547.438-3.593c.234-1.97-.525-6.49-1.693-10.04-1.822-5.54-4.981-19.8-7.04-31.78-2.925-17.02-3.757-59.905-1.334-68.79.675-2.476 2.245-4.082 4.558-4.662 2.887-.725 4.227-.049 7.376 3.724 2.455 2.94 3.56 5.52 3.051 7.122-.438 1.382-.068 3.392.823 4.466s1.773 5.51 1.96 9.857c.185 4.348.805 8.983 1.376 10.3.57 1.318.46 2.395-.248 2.395-.707 0-1.257 2.464-1.222 5.475.035 3.011.547 5.475 1.14 5.475.59 0 1.075 1.232 1.075 2.738s-.682 2.737-1.515 2.737c-.877 0-1.13 1.003-.603 2.378.896 2.335 2.292 16.86 2.007 20.89-.08 1.13-.257 10.369-.394 20.532-.3 22.19.996 27.37 18.32 73.227 8.368 22.148 11.408 31.912 11.495 36.919.092 5.343-.378 6.906-2.186 7.268-1.266.254-2.96-.767-3.764-2.268zm-58.068-36.52c10.089-6.35 20.873-28.644 23.239-48.042.826-6.773.7-7.14-3.076-9.01-6.377-3.158-15.765-3.043-19.944.245-1.973 1.553-4.26 2.823-5.083 2.823-1.368 0-2.065 1.869-1.657 4.448.089.565-.762 1.027-1.891 1.027s-2.053.53-2.053 1.178c0 .647-1.455 3.321-3.234 5.942-3.677 5.42-6.702 16.578-6.595 24.332.087 6.326 6.076 18.737 9.456 19.595 3.06.777 7.06-.16 10.839-2.538zm27.155-122.1c-.652-24.968-2.566-41.005-5.21-43.649-1.615-1.615-3.395 8.504-2.851 16.205 1.981 28.035 5.769 55.865 7.604 55.865.672 0 .874-12.485.458-28.42z"/></svg>
