<?xml version="1.0" standalone="no"?>
<!DOCTYPE svg PUBLIC "-//W3C//DTD SVG 20010904//EN"
 "http://www.w3.org/TR/2001/REC-SVG-20010904/DTD/svg10.dtd">
<svg version="1.0" xmlns="http://www.w3.org/2000/svg"
 width="912.000000pt" height="912.000000pt" viewBox="0 0 912.000000 912.000000"
 preserveAspectRatio="xMidYMid meet">
<metadata>
Created by potrace 1.11, written by Peter Selinger 2001-2013
</metadata>
<g transform="translate(0.000000,912.000000) scale(0.100000,-0.100000)"
fill="#000000" stroke="none">
<path d="M4435 8911 c-51 -13 -110 -48 -143 -85 -28 -32 -60 -113 -68 -171
-32 -239 -39 -390 -38 -890 0 -373 7 -679 19 -875 2 -36 7 -114 10 -175 4 -60
8 -128 10 -150 2 -22 6 -71 9 -110 6 -72 14 -154 22 -215 2 -19 6 -62 9 -95 3
-33 8 -71 10 -85 3 -14 14 -77 25 -140 11 -63 22 -126 25 -140 2 -14 7 -36 10
-50 2 -14 7 -41 10 -60 3 -19 8 -42 11 -51 2 -10 7 -30 9 -45 2 -16 7 -40 10
-54 3 -14 8 -36 11 -50 2 -14 5 -34 7 -45 2 -11 7 -27 10 -35 3 -8 13 -51 21
-95 9 -44 19 -91 22 -105 16 -78 98 -400 115 -453 11 -34 23 -71 25 -82 3 -11
6 -24 8 -30 3 -10 8 -31 27 -110 5 -22 11 -67 14 -100 3 -33 6 -64 7 -70 0 -5
-3 -44 -7 -85 -4 -41 -7 -81 -8 -87 0 -7 -2 -13 -5 -13 -6 0 -72 54 -132 109
-49 44 -155 109 -207 127 -253 87 -594 -17 -940 -285 -203 -158 -389 -399
-546 -706 -107 -210 -188 -444 -215 -620 -8 -54 -8 -239 1 -300 10 -75 46
-235 63 -278 7 -20 12 -37 9 -37 -6 0 72 -226 91 -262 8 -15 12 -28 9 -28 -15
0 69 -141 108 -181 46 -49 135 -113 202 -146 75 -38 217 -77 270 -75 76 4 213
41 284 79 15 7 29 13 33 13 12 0 179 99 252 150 77 53 196 161 196 178 0 6 4
12 8 14 5 2 28 37 51 78 23 41 46 82 51 90 47 79 275 559 275 580 0 3 3 10 7
15 10 17 68 163 100 255 39 115 39 115 39 117 -1 2 5 20 13 40 8 21 35 99 61
173 64 185 92 248 115 267 20 15 26 10 43 -40 8 -23 36 -91 62 -152 121 -285
152 -373 170 -488 3 -20 19 -52 34 -70 45 -52 78 -133 146 -362 32 -106 79
-237 141 -390 145 -355 309 -793 338 -900 2 -5 6 -23 11 -40 4 -16 12 -36 18
-42 5 -7 7 -13 3 -13 -3 0 1 -17 8 -37 31 -81 97 -322 108 -388 16 -104 48
-201 79 -245 51 -70 138 -95 182 -51 28 28 43 107 42 221 -2 122 -8 169 -41
305 -28 112 -117 405 -144 470 -19 45 -63 172 -67 195 -3 14 -9 30 -13 35 -4
6 -17 39 -29 75 -13 36 -26 74 -31 85 -15 41 -50 134 -100 269 -28 76 -55 148
-60 160 -10 22 -67 176 -107 286 -13 36 -26 72 -30 80 -3 8 -7 20 -9 25 -1 6
-17 46 -34 90 -17 44 -32 85 -34 90 -1 6 -14 42 -28 80 -15 39 -45 122 -68
185 -22 63 -44 122 -47 130 -3 8 -7 20 -9 25 -1 6 -35 104 -74 218 -39 115
-73 216 -75 225 -2 10 -16 55 -30 102 -14 47 -28 92 -30 100 -2 8 -15 60 -29
115 -27 108 -30 119 -51 240 -17 96 -27 159 -30 200 -2 17 -7 71 -12 120 -4
50 -7 304 -5 565 2 261 4 601 5 755 2 242 -2 355 -18 515 -7 73 -16 156 -20
180 -3 14 -7 43 -10 65 -3 22 -8 52 -11 67 -3 15 -5 30 -5 33 0 2 -6 19 -14
37 -11 28 -11 37 0 58 7 14 18 26 24 26 6 1 15 2 21 3 19 2 42 64 42 112 -1
50 -15 88 -39 102 -29 18 -46 95 -46 222 -1 127 11 181 44 212 26 24 29 33 24
63 -4 19 -10 39 -13 45 -6 10 -9 20 -16 65 -3 14 -7 41 -11 60 -5 32 -8 60
-19 173 -2 23 -7 88 -11 144 -3 56 -8 112 -11 125 -2 12 -6 38 -9 57 -8 59
-36 144 -63 190 -27 46 -38 133 -23 175 13 32 -34 172 -61 184 -5 2 -8 10 -8
18 0 8 -4 14 -8 14 -4 0 -15 12 -24 28 -22 35 -103 121 -148 154 -38 28 -105
41 -155 29z m112 -483 c13 -24 31 -74 42 -113 24 -85 26 -99 46 -230 3 -22 7
-47 10 -55 2 -8 7 -42 10 -75 3 -33 8 -78 10 -100 7 -55 16 -150 20 -210 2
-27 6 -81 9 -120 10 -114 18 -270 32 -630 10 -235 11 -1159 2 -1238 -7 -63
-13 -76 -27 -61 -11 11 -49 138 -55 184 -2 19 -7 42 -10 50 -3 8 -7 31 -10 50
-11 73 -17 116 -22 140 -14 71 -25 146 -29 188 -2 26 -6 56 -9 67 -4 22 -16
109 -22 159 -7 66 -14 128 -18 159 -3 18 -7 55 -11 82 -3 28 -8 70 -11 95 -3
24 -8 67 -10 95 -5 53 -10 104 -18 170 -2 22 -7 76 -11 120 -3 44 -8 92 -11
107 -2 14 -6 62 -9 105 -3 43 -7 101 -10 128 -14 144 -28 361 -28 450 0 77 9
224 18 275 2 14 6 43 10 64 14 97 50 186 74 186 9 0 26 -19 38 -42z m-427
-4222 c62 -4 94 -9 150 -22 14 -3 25 -5 25 -4 0 6 131 -47 185 -76 104 -54
111 -67 106 -205 -3 -63 -7 -125 -9 -139 -3 -14 -10 -56 -16 -95 -15 -96 -20
-123 -31 -175 -6 -25 -12 -54 -15 -65 -37 -173 -172 -583 -225 -683 -4 -9 -34
-71 -66 -137 -132 -277 -275 -491 -434 -645 -87 -85 -130 -120 -147 -120 -6 0
-13 -4 -15 -8 -6 -15 -131 -70 -198 -88 -66 -17 -172 -21 -212 -8 -80 24 -190
179 -277 389 -56 134 -65 160 -82 235 -6 30 -15 69 -19 85 -13 56 -2 253 20
370 16 86 20 104 25 132 3 16 22 82 41 147 54 185 95 276 198 440 35 55 71
119 80 141 39 90 38 89 100 102 32 6 63 16 68 21 6 6 10 38 10 71 0 68 27 122
63 127 43 7 142 59 189 100 26 24 123 73 166 85 54 14 78 18 150 25 30 3 56 7
58 8 1 2 12 2 25 0 12 -2 51 -5 87 -8z"/>
</g>
</svg>
