<svg version="1" xmlns="http://www.w3.org/2000/svg" width="1216" height="1216" viewBox="0 0 912.000000 912.000000"><path d="M443.5 20.9c-5.1 1.3-11 4.8-14.3 8.5-2.8 3.2-6 11.3-6.8 17.1-3.2 23.9-3.9 39-3.8 89 0 37.3.7 67.9 1.9 87.5.2 3.6.7 11.4 1 17.5.4 6 .8 12.8 1 15 .2 2.2.6 7.1.9 11 .6 7.2 1.4 15.4 2.2 21.5.2 1.9.6 6.2.9 9.5.3 3.3.8 7.1 1 8.5.3 1.4 1.4 7.7 2.5 14s2.2 12.6 2.5 14c.2 1.4.7 3.6 1 5 .2 1.4.7 4.1 1 6 .3 1.9.8 4.2 1.1 5.1.2 1 .7 3 .9 4.5.2 1.6.7 4 1 5.4.3 1.4.8 3.6 1.1 5 .2 1.4.5 3.4.7 4.5.2 1.1.7 2.7 1 3.5.3.8 1.3 5.1 2.1 9.5.9 4.4 1.9 9.1 2.2 10.5 1.6 7.8 9.8 40 11.5 45.3 1.1 3.4 2.3 7.1 2.5 8.2.3 1.1.6 2.4.8 3 .3 1 .8 3.1 2.7 11 .5 2.2 1.1 6.7 1.4 10 .3 3.3.6 6.4.7 7 0 .5-.3 4.4-.7 8.5-.4 4.1-.7 8.1-.8 8.7 0 .7-.2 1.3-.5 1.3-.6 0-7.2-5.4-13.2-10.9-4.9-4.4-15.5-10.9-20.7-12.7-25.3-8.7-59.4 1.7-94 28.5-20.3 15.8-38.9 39.9-54.6 70.6-10.7 21-18.8 44.4-21.5 62-.8 5.4-.8 23.9.1 30 1 7.5 4.6 23.5 6.3 27.8.7 2 1.2 3.7.9 3.7-.6 0 7.2 22.6 9.1 26.2.8 1.5 1.2 2.8.9 2.8-1.5 0 6.9 14.1 10.8 18.1 4.6 4.9 13.5 11.3 20.2 14.6 7.5 3.8 21.7 7.7 27 7.5 7.6-.4 21.3-4.1 28.4-7.9 1.5-.7 2.9-1.3 3.3-1.3 1.2 0 17.9-9.9 25.2-15 7.7-5.3 19.6-16.1 19.6-17.8 0-.6.4-1.2.8-1.4.5-.2 2.8-3.7 5.1-7.8s4.6-8.2 5.1-9c4.7-7.9 27.5-55.9 27.5-58 0-.3.3-1 .7-1.5 1-1.7 6.8-16.3 10-25.5 3.9-11.5 3.9-11.5 3.9-11.7-.1-.2.5-2 1.3-4 .8-2.1 3.5-9.9 6.1-17.3 6.4-18.5 9.2-24.8 11.5-26.7 2-1.5 2.6-1 4.3 4 .8 2.3 3.6 9.1 6.2 15.2 12.1 28.5 15.2 37.3 17 48.8.3 2 1.9 5.2 3.4 7 4.5 5.2 7.8 13.3 14.6 36.2 3.2 10.6 7.9 23.7 14.1 39 14.5 35.5 30.9 79.3 33.8 90 .2.5.6 2.3 1.1 4 .4 1.6 1.2 3.6 1.8 4.2.5.7.7 1.3.3 1.3-.3 0 .1 1.7.8 3.7 3.1 8.1 9.7 32.2 10.8 38.8 1.6 10.4 4.8 20.1 7.9 24.5 5.1 7 13.8 9.5 18.2 5.1 2.8-2.8 4.3-10.7 4.2-22.1-.2-12.2-.8-16.9-4.1-30.5-2.8-11.2-11.7-40.5-14.4-47-1.9-4.5-6.3-17.2-6.7-19.5-.3-1.4-.9-3-1.3-3.5-.4-.6-1.7-3.9-2.9-7.5-1.3-3.6-2.6-7.4-3.1-8.5-1.5-4.1-5-13.4-10-26.9-2.8-7.6-5.5-14.8-6-16-1-2.2-6.7-17.6-10.7-28.6-1.3-3.6-2.6-7.2-3-8-.3-.8-.7-2-.9-2.5-.1-.6-1.7-4.6-3.4-9s-3.2-8.5-3.4-9c-.1-.6-1.4-4.2-2.8-8-1.5-3.9-4.5-12.2-6.8-18.5-2.2-6.3-4.4-12.2-4.7-13-.3-.8-.7-2-.9-2.5-.1-.6-3.5-10.4-7.4-21.8-3.9-11.5-7.3-21.6-7.5-22.5-.2-1-1.6-5.5-3-10.2-1.4-4.7-2.8-9.2-3-10-.2-.8-1.5-6-2.9-11.5-2.7-10.8-3-11.9-5.1-24-1.7-9.6-2.7-15.9-3-20-.2-1.7-.7-7.1-1.2-12-.4-5-.7-30.4-.5-56.5.2-26.1.4-60.1.5-75.5.2-24.2-.2-35.5-1.8-51.5-.7-7.3-1.6-15.6-2-18-.3-1.4-.7-4.3-1-6.5-.3-2.2-.8-5.2-1.1-6.7-.3-1.5-.5-3-.5-3.3 0-.2-.6-1.9-1.4-3.7-1.1-2.8-1.1-3.7 0-5.8.7-1.4 1.8-2.6 2.4-2.6.6-.1 1.5-.2 2.1-.3 1.9-.2 4.2-6.4 4.2-11.2-.1-5-1.5-8.8-3.9-10.2-2.9-1.8-4.6-9.5-4.6-22.2-.1-12.7 1.1-18.1 4.4-21.2 2.6-2.4 2.9-3.3 2.4-6.3-.4-1.9-1-3.9-1.3-4.5-.6-1-.9-2-1.6-6.5-.3-1.4-.7-4.1-1.1-6-.5-3.2-.8-6-1.9-17.3-.2-2.3-.7-8.8-1.1-14.4-.3-5.6-.8-11.2-1.1-12.5-.2-1.2-.6-3.8-.9-5.7-.8-5.9-3.6-14.4-6.3-19-2.7-4.6-3.8-13.3-2.3-17.5 1.3-3.2-3.4-17.2-6.1-18.4-.5-.2-.8-1-.8-1.8s-.4-1.4-.8-1.4-1.5-1.2-2.4-2.8c-2.2-3.5-10.3-12.1-14.8-15.4-3.8-2.8-10.5-4.1-15.5-2.9zm11.2 48.3c1.3 2.4 3.1 7.4 4.2 11.3 2.4 8.5 2.6 9.9 4.6 23 .3 2.2.7 4.7 1 5.5.2.8.7 4.2 1 7.5.3 3.3.8 7.8 1 10 .7 5.5 1.6 15 2 21 .2 2.7.6 8.1.9 12 1 11.4 1.8 27 3.2 63 1 23.5 1.1 115.9.2 123.8-.7 6.3-1.3 7.6-2.7 6.1-1.1-1.1-4.9-13.8-5.5-18.4-.2-1.9-.7-4.2-1-5-.3-.8-.7-3.1-1-5-1.1-7.3-1.7-11.6-2.2-14-1.4-7.1-2.5-14.6-2.9-18.8-.2-2.6-.6-5.6-.9-6.7-.4-2.2-1.6-10.9-2.2-15.9-.7-6.6-1.4-12.8-1.8-15.9-.3-1.8-.7-5.5-1.1-8.2-.3-2.8-.8-7-1.1-9.5-.3-2.4-.8-6.7-1-9.5-.5-5.3-1-10.4-1.8-17-.2-2.2-.7-7.6-1.1-12-.3-4.4-.8-9.2-1.1-10.7-.2-1.4-.6-6.2-.9-10.5-.3-4.3-.7-10.1-1-12.8-1.4-14.4-2.8-36.1-2.8-45 0-7.7.9-22.4 1.8-27.5.2-1.4.6-4.3 1-6.4 1.4-9.7 5-18.6 7.4-18.6.9 0 2.6 1.9 3.8 4.2zM412 491.4c6.2.4 9.4.9 15 2.2 1.4.3 2.5.5 2.5.4 0-.6 13.1 4.7 18.5 7.6 10.4 5.4 11.1 6.7 10.6 20.5-.3 6.3-.7 12.5-.9 13.9-.3 1.4-1 5.6-1.6 9.5-1.5 9.6-2 12.3-3.1 17.5-.6 2.5-1.2 5.4-1.5 6.5-3.7 17.3-17.2 58.3-22.5 68.3-.4.9-3.4 7.1-6.6 13.7-13.2 27.7-27.5 49.1-43.4 64.5-8.7 8.5-13 12-14.7 12-.6 0-1.3.4-1.5.8-.6 1.5-13.1 7-19.8 8.8-6.6 1.7-17.2 2.1-21.2.8-8-2.4-19-17.9-27.7-38.9-5.6-13.4-6.5-16-8.2-23.5-.6-3-1.5-6.9-1.9-8.5-1.3-5.6-.2-25.3 2-37 1.6-8.6 2-10.4 2.5-13.2.3-1.6 2.2-8.2 4.1-14.7 5.4-18.5 9.5-27.6 19.8-44 3.5-5.5 7.1-11.9 8-14.1 3.9-9 3.8-8.9 10-10.2 3.2-.6 6.3-1.6 6.8-2.1.6-.6 1-3.8 1-7.1 0-6.8 2.7-12.2 6.3-12.7 4.3-.7 14.2-5.9 18.9-10 2.6-2.4 12.3-7.3 16.6-8.5 5.4-1.4 7.8-1.8 15-2.5 3-.3 5.6-.7 5.8-.8.1-.2 1.2-.2 2.5 0 1.2.2 5.1.5 8.7.8z"/></svg>